<svg xmlns="http://www.w3.org/2000/svg" id="Layer_1" data-name="Layer 1" width="400" height="340" viewBox="0 0 400 340"><defs><style>.cls-1,.cls-4{fill:#00578d;}.cls-1,.cls-3{stroke:#e6d1ac;}.cls-1{stroke-miterlimit:2;stroke-width:5.23px;}.cls-2{fill:#e6d1ac;}.cls-3{fill:none;stroke-width:3.49px;}</style></defs><title>hamilton-logo2</title><rect class="cls-1" x="104.95" y="12.19" width="190.32" height="200.64"></rect><rect class="cls-2" x="143.61" y="31.68" width="9.99" height="180.89"></rect><rect class="cls-2" x="126.4" y="61.82" width="9.99" height="150.75"></rect><rect class="cls-2" x="160.82" y="61.82" width="9.99" height="150.75"></rect><rect class="cls-2" x="248.46" y="31.68" width="9.99" height="180.89"></rect><rect class="cls-2" x="231.25" y="61.82" width="9.99" height="150.75"></rect><rect class="cls-2" x="265.67" y="61.82" width="9.99" height="150.75"></rect><path class="cls-2" d="M236.21,102.07a143.69,143.69,0,0,0-70.47-.44l-.09,9.54a141.2,141.2,0,0,1,69.94.26Z"></path><path class="cls-2" d="M250.27,124.2a133.17,133.17,0,0,0-98.11-.88l-.11,9.48a130.76,130.76,0,0,1,98.23.86Z"></path><path class="cls-2" d="M267.75,152.61c-18.68-11.45-44.13-21.54-67.64-21.54-22.52,0-47.11,9.55-65.26,20.11l.17,9.35c18-10.72,42.59-20.36,65.09-20.36,23.45,0,48.84,10.18,67.36,21.74Z"></path><line class="cls-3" x1="400" y1="327.81" y2="327.81"></line><path class="cls-4" d="M28,279.91v15.88c0,14.36,1.11,14.67,3.32,14.67h5.63v2.71H15.32v-2.71h4.12c1.1,0,2-.21,2-1v-43.9c0-11.46-.31-13.47-2.82-13.47H12.7v-2.71H34.3v2.71h-4c-1.2,0-2.31,0-2.31,1V276.6h36V265.55c0-11.46-.3-13.47-2.81-13.47H55.2v-2.71H76.8v2.71h-4c-1.21,0-2.32,0-2.32,1v42.7c0,14.36,1.11,14.67,3.32,14.67h5.62v2.71H57.81v-2.71h4.12c1.11,0,2-.21,2-1V279.91Z"></path><path class="cls-4" d="M110,279.51c0-2.21,0-7.13-7.33-7.13-3.22,0-7.24,1-9.75,3.11,0,4.22-1.7,8.75-4.82,8.75a2.2,2.2,0,0,1-2.11-2.12c0-8,11.76-13.36,19.29-13.36,10.45,0,10.55,5.63,10.55,13.06v16c0,6.33,0,10.95,7,12.45l-3.21,4.53c-3.72,0-8.74-4.23-9.35-9.55-3.61,4.12-10.74,9.55-16.37,9.55s-8.74-3.82-8.74-9.35c0-9,10.45-13.36,24.81-19.19Zm0,9.45c-9,3.21-18.58,6.93-18.58,14.86,0,3.72,1.91,6.13,5.73,6.13,5.22,0,10-3.92,12.85-8.24Z"></path><path class="cls-4" d="M126.53,270.37c1.41,0,4.62-.5,7-.8,3.12-.41,5.43-.81,6.94-.81v8c5.12-3.62,9.34-8,15.46-8,5.63,0,10,3.12,11.06,8.54,2.51-1.81,10.25-8.54,16-8.54,9.54,0,12.16,6.43,12.16,12.46v14.37c0,15.17.5,15.17,4.22,15.17h4v2.41H183.69v-2.41h3.72c.91,0,1.91,0,1.91-1V283.53c0-7.94-3.72-10.25-8.44-10.25-5.82.2-9.24,3.52-13.06,6.63v15.68c0,15.17.5,15.17,4.22,15.17h4v2.41H156.37v-2.41h3.72c.9,0,1.9,0,1.9-1V283.53c0-7.94-3.71-10.25-8.43-10.25-5.83.2-9.25,3.52-13.06,6.63v15.68c0,15.17.5,15.17,4.21,15.17h4v2.41H129v-2.41h3.72c.9,0,1.91,0,1.91-1v-28c0-8.94-1.11-8.94-2.81-8.94h-5.33Z"></path><path class="cls-4" d="M220.46,295.59c0,15.17.51,15.17,4.22,15.17h4v2.41H209v-2.41h3.72c.9,0,1.91,0,1.91-1v-28c0-8.94-1.11-8.94-2.82-8.94H206.5v-2.41c1.4,0,4.62-.5,7-.8,3.12-.41,5.43-.81,6.93-.81ZM217,250.38a3.77,3.77,0,0,1,0,7.53,3.77,3.77,0,0,1,0-7.53Z"></path><path class="cls-4" d="M240.66,256c0-8.94-1.11-8.94-2.82-8.94h-5.32v-2.41a73.18,73.18,0,0,0,14-2.31v53.25c0,15.17.51,15.17,4.22,15.17h4v2.41H235v-2.41h3.72c.9,0,1.91,0,1.91-1Z"></path><path class="cls-4" d="M270.29,270.37h10.95c-.3,2.31-.8,2.41-1.5,2.41h-9.45v28.73c0,4.52.5,9.35,7,9.35a17.93,17.93,0,0,0,6.83-1.61l.91,2c-3.12,1.81-8.34,3.52-11.85,3.52-5.73,0-8.75-3.82-8.75-9.25V272.78h-2.21c-2.1,0-2.51,0-2.51-.7,0-.5.41-1,1-1.61l8.13-9.65h1.41Z"></path><path class="cls-4" d="M311.68,268.76c12.16,0,19.69,9.35,19.69,21.6,0,18.09-14.16,24.42-22.1,24.42-12.16,0-19.69-9.35-19.69-21.61C289.58,275.09,303.75,268.76,311.68,268.76Zm-.3,43c11.05,0,13.66-10.35,13.66-19.49,0-9.64-4.42-20.49-15.47-20.49s-13.66,10.34-13.66,19.49C295.91,300.91,300.33,311.76,311.38,311.76Z"></path><path class="cls-4" d="M349.86,295.59c0,15.17.5,15.17,4.22,15.17h4v2.41H338.41v-2.41h3.71c.91,0,1.91,0,1.91-1v-28c0-8.94-1.1-8.94-2.81-8.94h-5.33v-2.41c1.41,0,4.62-.5,7-.8,3.11-.41,5.42-.81,6.93-.81v8c5.22-4.32,10.55-8,17.08-8,9.54,0,12.15,6.43,12.15,12.46v14.37c0,15.17.51,15.17,4.22,15.17h4v2.41H367.64v-2.41h3.72c.9,0,1.91,0,1.91-1V283.53c0-7.94-3.72-10.25-8.34-10.25-6,0-10.65,2.92-15.07,6.63Z"></path></svg>